<?xml version="1.0" standalone="no"?>
<!DOCTYPE svg PUBLIC "-//W3C//DTD SVG 20010904//EN"
 "http://www.w3.org/TR/2001/REC-SVG-20010904/DTD/svg10.dtd">
<svg version="1.0" xmlns="http://www.w3.org/2000/svg"
 width="700.000000pt" height="700.000000pt" viewBox="0 0 700.000000 700.000000"
 preserveAspectRatio="xMidYMid meet">
<metadata>
Created by potrace 1.14, written by Peter Selinger 2001-2017
</metadata>
<g transform="translate(0.000000,700.000000) scale(0.100000,-0.100000)"
fill="#000000" stroke="none">
<path d="M2005 6325 c-52 -19 -186 -155 -360 -366 -261 -316 -536 -802 -695
-1229 -82 -218 -169 -515 -204 -690 -40 -202 -57 -302 -75 -440 -6 -41 -13
-111 -16 -155 -4 -44 -9 -91 -12 -105 -2 -14 -6 -144 -8 -290 -4 -290 6 -398
58 -591 146 -545 553 -1036 1135 -1371 67 -39 286 -145 337 -163 28 -10 55
-22 60 -25 21 -15 265 -93 390 -125 212 -54 408 -86 620 -101 436 -30 855 14
1265 132 112 33 354 120 398 144 9 5 72 36 139 69 188 93 357 201 523 334 118
96 318 302 403 417 43 58 82 110 87 117 6 7 10 14 10 17 0 2 19 35 42 72 84
140 193 401 213 515 3 18 8 36 11 40 2 4 13 63 24 131 16 105 18 162 15 388
-2 146 -6 276 -8 290 -3 14 -8 63 -12 110 -3 47 -8 94 -10 105 -3 11 -7 43 -9
70 -3 28 -7 59 -10 70 -2 11 -7 43 -10 70 -4 28 -18 104 -32 170 -13 66 -26
129 -28 140 -2 11 -12 49 -21 85 -9 36 -19 75 -21 87 -2 12 -25 90 -50 173
-115 383 -269 729 -487 1095 -7 11 -22 34 -34 52 -13 17 -23 34 -23 38 0 6
-159 232 -194 276 -12 14 -34 43 -51 64 -91 117 -258 300 -321 351 -46 38 -98
49 -159 33 -68 -18 -288 -256 -482 -519 -76 -104 -203 -295 -203 -305 0 -4 -9
-20 -21 -36 -27 -38 -136 -234 -144 -258 -10 -33 -27 -39 -85 -31 -226 31
-727 34 -865 4 -11 -2 -38 -6 -60 -8 l-41 -4 -39 76 c-90 177 -255 439 -376
599 -145 191 -371 443 -419 468 -42 21 -101 26 -145 10z m3032 -2580 c46 -8
155 -50 218 -83 135 -70 277 -190 375 -317 47 -61 140 -213 140 -229 0 -16
-81 -152 -127 -214 -105 -139 -256 -268 -398 -339 -53 -27 -180 -72 -219 -78
l-31 -5 1 632 c1 348 2 637 3 641 0 5 5 5 11 2 5 -3 18 -8 27 -10z m-3032
-631 l0 -635 -35 6 c-97 19 -270 99 -365 170 -73 55 -181 161 -235 230 -48 62
-140 213 -140 230 0 17 92 168 142 233 78 100 194 208 293 270 96 60 266 128
325 131 13 1 15 -75 15 -635z m470 610 c263 -85 483 -278 640 -558 l26 -47
-26 -52 c-116 -223 -307 -411 -521 -512 -84 -40 -212 -80 -222 -70 -4 4 -7
290 -7 636 -1 566 1 629 15 629 8 0 51 -12 95 -26z m2160 -603 c0 -346 -3
-632 -7 -636 -9 -10 -134 29 -215 66 -202 93 -418 303 -529 517 l-25 49 33 62
c36 68 121 185 183 253 99 108 274 229 395 273 62 22 132 43 150 44 14 1 16
-68 15 -628z"/>
</g>
</svg>
